<?xml version="1.0" encoding="utf-8"?>
<!-- Generator: Adobe Illustrator 27.5.0, SVG Export Plug-In . SVG Version: 6.00 Build 0)  -->
<svg version="1.1" id="Layer_1" xmlns="http://www.w3.org/2000/svg" xmlns:xlink="http://www.w3.org/1999/xlink" x="0px" y="0px"
	 viewBox="0 0 370.6 221.99" style="enable-background:new 0 0 370.6 221.99;" xml:space="preserve">
<style type="text/css">
	.st0{fill:#FFFFFF;}
</style>
<g>
	<path class="st0" d="M106.23,194.45c-0.41-3.8-0.8-9.39-1.2-16.79v-45.24c0-7.39-1.39-13.18-4.16-17.38
		c-4.36-6.39-12.38-11.09-24.07-14.08h-0.37l0.37-0.12c11.69-3,19.72-7.69,24.07-14.09c2.77-4.19,4.16-9.98,4.16-17.38V44.33
		c0.4-7.4,0.79-12.99,1.2-16.79c1.39-11.79,3.68-18.88,6.88-21.28H67.33c-2.6,3-4.39,7.43-5.38,13.32c-1,5.88-1.5,14.21-1.5,24.99
		v31.27c0,5.19-1.3,8.33-3.9,9.43c-2.6,1.09-6.19,1.64-10.76,1.64V6.26H0v209.46h45.79V114.88c4.57,0,8.16,0.56,10.76,1.65
		c2.6,1.1,3.9,4.24,3.9,9.43v51.46c0,10.78,0.49,19.1,1.5,24.99c0.99,5.89,2.79,10.32,5.38,13.32h45.78
		C109.91,213.33,107.62,206.24,106.23,194.45z"/>
	<g>
		<g>
			<path class="st0" d="M235.12,182.45c0,12.66-5.04,22.41-15.1,29.27c-10.07,6.84-23.2,10.27-39.38,10.27
				c-16.19,0-29.38-3.32-39.54-9.96c-10.18-6.64-15.26-16.39-15.26-29.27V42.34c0-13.9,3.94-24.18,11.83-30.82
				C146.59,3.85,161.02,0,180.95,0c18.26,0,31.86,3.63,40.79,10.9c8.92,7.27,13.38,17.64,13.38,31.13V182.45z M188.73,185.22V36.14
				c0-2.29-0.64-3.96-1.94-5c-1.29-1.04-3.35-1.56-6.15-1.56c-2.8,0-4.91,0.52-6.31,1.56c-1.4,1.04-2.1,2.71-2.1,5v149.08
				c0,2.09,0.7,3.7,2.1,4.85c1.4,1.14,3.5,1.72,6.31,1.72c2.8,0,4.86-0.57,6.15-1.72C188.08,188.92,188.73,187.31,188.73,185.22z"/>
		</g>
	</g>
	<g>
		<g>
			<path class="st0" d="M370.6,215.73h-45.79c-2.59-3-4.38-7.43-5.38-13.32c-1-5.88-1.5-14.21-1.5-24.99v-51.46
				c0-5.19-1.3-8.33-3.9-9.43c-2.6-1.09-6.19-1.65-10.76-1.65v100.85h-45.78V6.26h56.85c15.16,0,26.98,3.38,35.46,10.13
				c8.48,6.75,12.72,15.68,12.72,26.8V68.2c0,6.95-1.09,12.32-3.27,16.08c-3.97,6.96-12.29,12.51-24.97,16.68
				c11.69,2.99,19.72,7.69,24.07,14.08c2.77,4.2,4.16,9.99,4.16,17.38v45.24c0.4,7.4,0.8,12.99,1.2,16.79
				C365.11,206.24,367.4,213.33,370.6,215.73z M317.93,78.14V43.91c0-5.16-1.3-8.28-3.9-9.38c-2.6-1.09-6.19-1.63-10.76-1.63v56.26
				c4.79,0,7.9-0.3,9.36-0.9C316.17,86.68,317.93,83.3,317.93,78.14z"/>
		</g>
		<path class="st0" d="M295.21,215.73h-45.79c3.2-2.39,5.49-9.49,6.88-21.27c0.4-3.8,0.8-9.39,1.2-16.79V44.33
			c-0.4-7.4-0.77-12.99-1.2-16.79c-1.32-11.8-3.68-18.88-6.88-21.28h21.6"/>
	</g>
</g>
</svg>
