<?xml version="1.0" encoding="utf-8"?>
<!-- Generator: Adobe Illustrator 27.5.0, SVG Export Plug-In . SVG Version: 6.00 Build 0)  -->
<svg version="1.1" id="Layer_1" xmlns="http://www.w3.org/2000/svg" xmlns:xlink="http://www.w3.org/1999/xlink" x="0px" y="0px"
	 viewBox="0 0 1190.5 841.9" style="enable-background:new 0 0 1190.5 841.9;" xml:space="preserve">
<style type="text/css">
	.st0{fill:#A90F14;}
</style>
<g>
	<path class="st0" d="M515.9,465.3c-0.4-3.8-0.8-9.4-1.2-16.8v-45.2c0-7.4-1.4-13.2-4.2-17.4c-4.4-6.4-12.4-11.1-24.1-14.1h-0.4
		l0.4-0.1c11.7-3,19.7-7.7,24.1-14.1c2.8-4.2,4.2-10,4.2-17.4v-25c0.4-7.4,0.8-13,1.2-16.8c1.4-11.8,3.7-18.9,6.9-21.3H477
		c-2.6,3-4.4,7.4-5.4,13.3c-1,5.9-1.5,14.2-1.5,25v31.3c0,5.2-1.3,8.3-3.9,9.4c-2.6,1.1-6.2,1.6-10.8,1.6v-80.6h-45.8v209.5h45.8
		V385.8c4.6,0,8.2,0.6,10.8,1.6c2.6,1.1,3.9,4.2,3.9,9.4v51.5c0,10.8,0.5,19.1,1.5,25c1,5.9,2.8,10.3,5.4,13.3h45.8
		C519.6,484.2,517.3,477.1,515.9,465.3z"/>
	<g>
		<g>
			<path class="st0" d="M644.8,453.3c0,12.7-5,22.4-15.1,29.3c-10.1,6.8-23.2,10.3-39.4,10.3c-16.2,0-29.4-3.3-39.5-10
				c-10.2-6.6-15.3-16.4-15.3-29.3V313.2c0-13.9,3.9-24.2,11.8-30.8c8.9-7.7,23.4-11.5,43.3-11.5c18.3,0,31.9,3.6,40.8,10.9
				c8.9,7.3,13.4,17.6,13.4,31.1V453.3z M598.4,456.1V307c0-2.3-0.6-4-1.9-5c-1.3-1-3.3-1.6-6.2-1.6s-4.9,0.5-6.3,1.6
				c-1.4,1-2.1,2.7-2.1,5v149.1c0,2.1,0.7,3.7,2.1,4.8c1.4,1.1,3.5,1.7,6.3,1.7s4.9-0.6,6.2-1.7
				C597.8,459.8,598.4,458.2,598.4,456.1z"/>
		</g>
	</g>
	<g>
		<g>
			<path class="st0" d="M780.3,486.6h-45.8c-2.6-3-4.4-7.4-5.4-13.3c-1-5.9-1.5-14.2-1.5-25v-51.5c0-5.2-1.3-8.3-3.9-9.4
				c-2.6-1.1-6.2-1.6-10.8-1.6v100.8h-45.8V277.2h56.9c15.2,0,27,3.4,35.5,10.1c8.5,6.8,12.7,15.7,12.7,26.8v25
				c0,7-1.1,12.3-3.3,16.1c-4,7-12.3,12.5-25,16.7c11.7,3,19.7,7.7,24.1,14.1c2.8,4.2,4.2,10,4.2,17.4v45.2c0.4,7.4,0.8,13,1.2,16.8
				C774.8,477.1,777.1,484.2,780.3,486.6z M727.6,349v-34.2c0-5.2-1.3-8.3-3.9-9.4c-2.6-1.1-6.2-1.6-10.8-1.6V360
				c4.8,0,7.9-0.3,9.4-0.9C725.9,357.6,727.6,354.2,727.6,349z"/>
		</g>
		<path class="st0" d="M704.9,486.6h-45.8c3.2-2.4,5.5-9.5,6.9-21.3c0.4-3.8,0.8-9.4,1.2-16.8V315.2c-0.4-7.4-0.8-13-1.2-16.8
			c-1.3-11.8-3.7-18.9-6.9-21.3h21.6"/>
	</g>
</g>
</svg>
